# xmcd
# Track frame offsets:
# 150
# 17105
# 33316
# 47850
# 62848
# 75431
# 90248
# 113116
# 127287
# 141125
# 160017
# 175599
# 191821
# 204286
# 218719
# 234361
# 248457
# 264206
#
# Disc length: 3705 seconds
# Revision: 0
# Processed by: cddbd v1.5.2PL0 Copyright (c) Steve Scherf et al.
# Submitted via: VisiTrax 2.11.2.271 - For more info visit www.synapsa.com
#
DISCID=e50e7712
DTITLE=Various Artist - Promo Country August 2015
DYEAR=1900
DGENRE=
TTITLE0=Miranda Lambert ft Little Big Town - Smokin And Drinkin
TTITLE1=Florida Georgia Line - Anything Goes
TTITLE2=Brooklyhn Woods - When You Love A Wild Thing
TTITLE3=Brushville - Dangerous
TTITLE4=James Otto - Somewhere Tonight
TTITLE5=Stephanie Quayle - That's What I'm Talking About
TTITLE6=Brian Collins - Shine A Little Love
TTITLE7=Lindsay Lawler - Goodbye Go
TTITLE8=Darcy Wood - Unmistakably You
TTITLE9=Billy Currington - Drinkin Town With A Football Problem
TTITLE10=Thousand Horses, A - This Ain't No Drunk Dial
TTITLE11=Boone - Summer Girls
TTITLE12=Jake Owen - Real Life
TTITLE13=Hunter Hayes - 21
TTITLE14=Tyler Farr - Withdrawals
TTITLE15=Sam Hunt - House Party
TTITLE16=Kristian Bush - Light Me Up
TTITLE17=Craig Campbell - Tomorrow Tonight
EXTD=
EXTT0=
EXTT1=
EXTT2=
EXTT3=
EXTT4=
EXTT5=
EXTT6=
EXTT7=
EXTT8=
EXTT9=
EXTT10=
EXTT11=
EXTT12=
EXTT13=
EXTT14=
EXTT15=
EXTT16=
EXTT17=
PLAYORDER=
